<mxfile host="app.diagrams.net" agent="Mozilla/5.0 (Macintosh; Intel Mac OS X 10_15_7) AppleWebKit/537.36 (KHTML, like Gecko) Chrome/136.0.0.0 Safari/537.36" version="27.0.5">
  <diagram id="njuDCOuP6lqVpX5qeXNU" name="Page-1">
    <mxGraphModel dx="1202" dy="812" grid="1" gridSize="10" guides="1" tooltips="1" connect="1" arrows="1" fold="1" page="1" pageScale="1" pageWidth="850" pageHeight="1100" math="0" shadow="0">
      <root>
        <mxCell id="0" />
        <mxCell id="1" parent="0" />
        <mxCell id="nZ9N4Pl0c4IbJR1bZfCv-7" value="" style="strokeWidth=2;html=1;shape=mxgraph.flowchart.annotation_2;align=left;labelPosition=right;pointerEvents=1;rotation=-90;container=0;" parent="1" vertex="1">
          <mxGeometry x="1185" y="85" width="50" height="100" as="geometry" />
        </mxCell>
        <mxCell id="nZ9N4Pl0c4IbJR1bZfCv-47" value="" style="endArrow=none;html=1;rounded=0;entryX=0;entryY=0.5;entryDx=0;entryDy=0;exitX=1;exitY=0.5;exitDx=0;exitDy=0;" parent="1" source="nZ9N4Pl0c4IbJR1bZfCv-4" target="-h9D7wXuSF3LVRJVjBPy-37" edge="1">
          <mxGeometry width="50" height="50" relative="1" as="geometry">
            <mxPoint x="1090" y="230" as="sourcePoint" />
            <mxPoint x="1140" y="180" as="targetPoint" />
          </mxGeometry>
        </mxCell>
        <mxCell id="nZ9N4Pl0c4IbJR1bZfCv-48" value="" style="endArrow=none;html=1;rounded=0;exitX=0;exitY=0.5;exitDx=0;exitDy=0;entryX=1;entryY=0.5;entryDx=0;entryDy=0;" parent="1" source="nZ9N4Pl0c4IbJR1bZfCv-4" target="-h9D7wXuSF3LVRJVjBPy-4" edge="1">
          <mxGeometry width="50" height="50" relative="1" as="geometry">
            <mxPoint x="1130" y="190" as="sourcePoint" />
            <mxPoint x="990" y="180" as="targetPoint" />
          </mxGeometry>
        </mxCell>
        <mxCell id="nZ9N4Pl0c4IbJR1bZfCv-49" value="" style="endArrow=none;html=1;rounded=0;entryX=0.5;entryY=1;entryDx=0;entryDy=0;exitX=0.5;exitY=0;exitDx=0;exitDy=0;" parent="1" source="nZ9N4Pl0c4IbJR1bZfCv-20" target="-h9D7wXuSF3LVRJVjBPy-4" edge="1">
          <mxGeometry width="50" height="50" relative="1" as="geometry">
            <mxPoint x="960" y="250" as="sourcePoint" />
            <mxPoint x="1010" y="200" as="targetPoint" />
          </mxGeometry>
        </mxCell>
        <mxCell id="nZ9N4Pl0c4IbJR1bZfCv-50" value="" style="endArrow=none;html=1;rounded=0;exitX=0.5;exitY=0;exitDx=0;exitDy=0;entryX=0.5;entryY=1;entryDx=0;entryDy=0;" parent="1" source="nZ9N4Pl0c4IbJR1bZfCv-21" target="nZ9N4Pl0c4IbJR1bZfCv-20" edge="1">
          <mxGeometry width="50" height="50" relative="1" as="geometry">
            <mxPoint x="940" y="360" as="sourcePoint" />
            <mxPoint x="990" y="310" as="targetPoint" />
          </mxGeometry>
        </mxCell>
        <mxCell id="nZ9N4Pl0c4IbJR1bZfCv-52" value="" style="endArrow=none;html=1;rounded=0;exitX=1;exitY=0.5;exitDx=0;exitDy=0;entryX=0;entryY=0.5;entryDx=0;entryDy=0;" parent="1" source="nZ9N4Pl0c4IbJR1bZfCv-22" target="nZ9N4Pl0c4IbJR1bZfCv-23" edge="1">
          <mxGeometry width="50" height="50" relative="1" as="geometry">
            <mxPoint x="1150" y="434" as="sourcePoint" />
            <mxPoint x="1200" y="384" as="targetPoint" />
          </mxGeometry>
        </mxCell>
        <mxCell id="nZ9N4Pl0c4IbJR1bZfCv-53" value="" style="endArrow=none;html=1;rounded=0;exitX=1;exitY=0.5;exitDx=0;exitDy=0;entryX=0;entryY=0.5;entryDx=0;entryDy=0;" parent="1" source="nZ9N4Pl0c4IbJR1bZfCv-23" target="nZ9N4Pl0c4IbJR1bZfCv-9" edge="1">
          <mxGeometry width="50" height="50" relative="1" as="geometry">
            <mxPoint x="1310" y="434" as="sourcePoint" />
            <mxPoint x="1360" y="384" as="targetPoint" />
          </mxGeometry>
        </mxCell>
        <mxCell id="nZ9N4Pl0c4IbJR1bZfCv-54" value="" style="endArrow=none;html=1;rounded=0;entryX=0.5;entryY=1;entryDx=0;entryDy=0;exitX=0.5;exitY=0;exitDx=0;exitDy=0;" parent="1" source="nZ9N4Pl0c4IbJR1bZfCv-46" target="nZ9N4Pl0c4IbJR1bZfCv-9" edge="1">
          <mxGeometry width="50" height="50" relative="1" as="geometry">
            <mxPoint x="1330" y="474" as="sourcePoint" />
            <mxPoint x="1380" y="424" as="targetPoint" />
          </mxGeometry>
        </mxCell>
        <mxCell id="nZ9N4Pl0c4IbJR1bZfCv-55" value="" style="endArrow=none;html=1;rounded=0;exitX=0;exitY=0.5;exitDx=0;exitDy=0;entryX=1;entryY=0.5;entryDx=0;entryDy=0;" parent="1" source="nZ9N4Pl0c4IbJR1bZfCv-45" target="nZ9N4Pl0c4IbJR1bZfCv-46" edge="1">
          <mxGeometry width="50" height="50" relative="1" as="geometry">
            <mxPoint x="1370" y="510" as="sourcePoint" />
            <mxPoint x="1420" y="460" as="targetPoint" />
          </mxGeometry>
        </mxCell>
        <mxCell id="nZ9N4Pl0c4IbJR1bZfCv-57" value="" style="endArrow=none;html=1;rounded=0;entryX=0.5;entryY=1;entryDx=0;entryDy=0;exitX=0.5;exitY=0;exitDx=0;exitDy=0;" parent="1" source="nZ9N4Pl0c4IbJR1bZfCv-10" edge="1">
          <mxGeometry width="50" height="50" relative="1" as="geometry">
            <mxPoint x="1441" y="600" as="sourcePoint" />
            <mxPoint x="1491" y="540" as="targetPoint" />
          </mxGeometry>
        </mxCell>
        <mxCell id="nZ9N4Pl0c4IbJR1bZfCv-58" value="" style="endArrow=none;html=1;rounded=0;entryX=0;entryY=0.5;entryDx=0;entryDy=0;exitX=1;exitY=0.5;exitDx=0;exitDy=0;" parent="1" source="-h9D7wXuSF3LVRJVjBPy-38" target="nZ9N4Pl0c4IbJR1bZfCv-1" edge="1">
          <mxGeometry width="50" height="50" relative="1" as="geometry">
            <mxPoint x="1240" y="579" as="sourcePoint" />
            <mxPoint x="1300" y="806" as="targetPoint" />
          </mxGeometry>
        </mxCell>
        <mxCell id="nZ9N4Pl0c4IbJR1bZfCv-59" value="" style="endArrow=none;html=1;rounded=0;entryX=0.5;entryY=1;entryDx=0;entryDy=0;exitX=0.5;exitY=0;exitDx=0;exitDy=0;" parent="1" source="nZ9N4Pl0c4IbJR1bZfCv-3" target="-h9D7wXuSF3LVRJVjBPy-38" edge="1">
          <mxGeometry width="50" height="50" relative="1" as="geometry">
            <mxPoint x="1159.5" y="887" as="sourcePoint" />
            <mxPoint x="1209.5" y="837" as="targetPoint" />
          </mxGeometry>
        </mxCell>
        <mxCell id="nZ9N4Pl0c4IbJR1bZfCv-60" value="" style="endArrow=none;html=1;rounded=0;exitX=1;exitY=0.5;exitDx=0;exitDy=0;entryX=0;entryY=0.5;entryDx=0;entryDy=0;" parent="1" source="-h9D7wXuSF3LVRJVjBPy-39" target="nZ9N4Pl0c4IbJR1bZfCv-3" edge="1">
          <mxGeometry width="50" height="50" relative="1" as="geometry">
            <mxPoint x="1159.5" y="887" as="sourcePoint" />
            <mxPoint x="1209.5" y="837" as="targetPoint" />
          </mxGeometry>
        </mxCell>
        <mxCell id="nZ9N4Pl0c4IbJR1bZfCv-63" value="" style="strokeWidth=2;html=1;shape=mxgraph.flowchart.annotation_2;align=left;labelPosition=right;pointerEvents=1;rotation=-90;container=0;" parent="1" vertex="1">
          <mxGeometry x="1185" y="285" width="50" height="100" as="geometry" />
        </mxCell>
        <mxCell id="nZ9N4Pl0c4IbJR1bZfCv-64" value="PRESENTE" style="rounded=0;whiteSpace=wrap;html=1;fillColor=#CCE5FF;strokeColor=#66B2FF;container=0;" parent="1" vertex="1">
          <mxGeometry x="1100" y="270" width="100" height="40" as="geometry" />
        </mxCell>
        <mxCell id="nZ9N4Pl0c4IbJR1bZfCv-81" value="Numero&lt;div&gt;dipendenti&lt;/div&gt;" style="text;html=1;align=center;verticalAlign=middle;whiteSpace=wrap;rounded=0;" parent="1" vertex="1">
          <mxGeometry x="1180" y="230" width="60" height="30" as="geometry" />
        </mxCell>
        <mxCell id="nZ9N4Pl0c4IbJR1bZfCv-104" value="(t,e)" style="text;html=1;align=center;verticalAlign=middle;whiteSpace=wrap;rounded=0;fontColor=#FF3333;" parent="1" vertex="1">
          <mxGeometry x="1195" y="132" width="60" height="30" as="geometry" />
        </mxCell>
        <mxCell id="nZ9N4Pl0c4IbJR1bZfCv-105" value="(t,e)" style="text;html=1;align=center;verticalAlign=middle;whiteSpace=wrap;rounded=0;fontColor=#FF3333;" parent="1" vertex="1">
          <mxGeometry x="1195" y="330" width="60" height="30" as="geometry" />
        </mxCell>
        <mxCell id="nZ9N4Pl0c4IbJR1bZfCv-106" value="(1,1)" style="text;html=1;align=center;verticalAlign=middle;whiteSpace=wrap;rounded=0;fontColor=#FF3333;" parent="1" vertex="1">
          <mxGeometry x="1116" y="155" width="60" height="30" as="geometry" />
        </mxCell>
        <mxCell id="nZ9N4Pl0c4IbJR1bZfCv-107" value="(1,1)" style="text;html=1;align=center;verticalAlign=middle;whiteSpace=wrap;rounded=0;fontColor=#FF3333;" parent="1" vertex="1">
          <mxGeometry x="968" y="154" width="60" height="30" as="geometry" />
        </mxCell>
        <mxCell id="nZ9N4Pl0c4IbJR1bZfCv-109" value="(5,10)" style="text;html=1;align=center;verticalAlign=middle;whiteSpace=wrap;rounded=0;fontColor=#FF3333;" parent="1" vertex="1">
          <mxGeometry x="918" y="369" width="60" height="30" as="geometry" />
        </mxCell>
        <mxCell id="nZ9N4Pl0c4IbJR1bZfCv-110" value="(1,N)" style="text;html=1;align=center;verticalAlign=middle;whiteSpace=wrap;rounded=0;fontColor=#FF3333;" parent="1" vertex="1">
          <mxGeometry x="968" y="388" width="60" height="30" as="geometry" />
        </mxCell>
        <mxCell id="nZ9N4Pl0c4IbJR1bZfCv-111" value="(1,1)" style="text;html=1;align=center;verticalAlign=middle;whiteSpace=wrap;rounded=0;fontColor=#FF3333;" parent="1" vertex="1">
          <mxGeometry x="1116" y="388" width="60" height="30" as="geometry" />
        </mxCell>
        <mxCell id="nZ9N4Pl0c4IbJR1bZfCv-112" value="(1,1)" style="text;html=1;align=center;verticalAlign=middle;whiteSpace=wrap;rounded=0;fontColor=#FF3333;" parent="1" vertex="1">
          <mxGeometry x="1245.5" y="388" width="60" height="30" as="geometry" />
        </mxCell>
        <mxCell id="nZ9N4Pl0c4IbJR1bZfCv-113" value="(1,1)" style="text;html=1;align=center;verticalAlign=middle;whiteSpace=wrap;rounded=0;fontColor=#FF3333;" parent="1" vertex="1">
          <mxGeometry x="1340" y="429" width="60" height="30" as="geometry" />
        </mxCell>
        <mxCell id="nZ9N4Pl0c4IbJR1bZfCv-114" value="(1,1)" style="text;html=1;align=center;verticalAlign=middle;whiteSpace=wrap;rounded=0;fontColor=#FF3333;" parent="1" vertex="1">
          <mxGeometry x="1390" y="494" width="60" height="30" as="geometry" />
        </mxCell>
        <mxCell id="nZ9N4Pl0c4IbJR1bZfCv-115" value="(1,N)" style="text;html=1;align=center;verticalAlign=middle;whiteSpace=wrap;rounded=0;fontColor=#FF3333;" parent="1" vertex="1">
          <mxGeometry x="1481" y="555" width="60" height="30" as="geometry" />
        </mxCell>
        <mxCell id="nZ9N4Pl0c4IbJR1bZfCv-116" value="(1,N)" style="text;html=1;align=center;verticalAlign=middle;whiteSpace=wrap;rounded=0;fontColor=#FF3333;" parent="1" vertex="1">
          <mxGeometry x="1246" y="782" width="60" height="30" as="geometry" />
        </mxCell>
        <mxCell id="nZ9N4Pl0c4IbJR1bZfCv-117" value="(1,1)" style="text;html=1;align=center;verticalAlign=middle;whiteSpace=wrap;rounded=0;fontColor=#FF3333;" parent="1" vertex="1">
          <mxGeometry x="1196.5" y="822" width="60" height="30" as="geometry" />
        </mxCell>
        <mxCell id="nZ9N4Pl0c4IbJR1bZfCv-118" value="(1,N)" style="text;html=1;align=center;verticalAlign=middle;whiteSpace=wrap;rounded=0;fontColor=#FF3333;" parent="1" vertex="1">
          <mxGeometry x="1109.5" y="860" width="60" height="30" as="geometry" />
        </mxCell>
        <mxCell id="nZ9N4Pl0c4IbJR1bZfCv-159" value="" style="endArrow=none;html=1;rounded=0;entryX=0.5;entryY=1;entryDx=0;entryDy=0;exitX=0.5;exitY=0;exitDx=0;exitDy=0;" parent="1" source="-h9D7wXuSF3LVRJVjBPy-4" target="nZ9N4Pl0c4IbJR1bZfCv-158" edge="1">
          <mxGeometry width="50" height="50" relative="1" as="geometry">
            <mxPoint x="970" y="180" as="sourcePoint" />
            <mxPoint x="1020" y="130" as="targetPoint" />
          </mxGeometry>
        </mxCell>
        <mxCell id="nZ9N4Pl0c4IbJR1bZfCv-160" value="" style="endArrow=none;html=1;rounded=0;entryX=1;entryY=0.5;entryDx=0;entryDy=0;exitX=0;exitY=0.5;exitDx=0;exitDy=0;" parent="1" source="nZ9N4Pl0c4IbJR1bZfCv-158" target="nZ9N4Pl0c4IbJR1bZfCv-157" edge="1">
          <mxGeometry width="50" height="50" relative="1" as="geometry">
            <mxPoint x="970" y="180" as="sourcePoint" />
            <mxPoint x="1020" y="130" as="targetPoint" />
          </mxGeometry>
        </mxCell>
        <mxCell id="-h9D7wXuSF3LVRJVjBPy-39" value="FORNITORE" style="rounded=0;whiteSpace=wrap;html=1;fillColor=#CCE5FF;strokeColor=#66B2FF;" parent="1" vertex="1">
          <mxGeometry x="1019.5" y="867" width="100" height="40" as="geometry" />
        </mxCell>
        <mxCell id="-h9D7wXuSF3LVRJVjBPy-38" value="MATERIALE" style="rounded=0;whiteSpace=wrap;html=1;fillColor=#CCE5FF;strokeColor=#66B2FF;" parent="1" vertex="1">
          <mxGeometry x="1159.5" y="787" width="100" height="40" as="geometry" />
        </mxCell>
        <mxCell id="nZ9N4Pl0c4IbJR1bZfCv-46" value="PRODOTTO" style="rounded=0;whiteSpace=wrap;html=1;fillColor=#CCE5FF;strokeColor=#66B2FF;" parent="1" vertex="1">
          <mxGeometry x="1300" y="500" width="100" height="40" as="geometry" />
        </mxCell>
        <mxCell id="nZ9N4Pl0c4IbJR1bZfCv-45" value="ISTANZA DI" style="rhombus;whiteSpace=wrap;html=1;fillColor=#FFFFCC;strokeColor=#FFCC99;" parent="1" vertex="1">
          <mxGeometry x="1440" y="500" width="100" height="40" as="geometry" />
        </mxCell>
        <mxCell id="nZ9N4Pl0c4IbJR1bZfCv-10" value="MODELLO" style="rounded=0;whiteSpace=wrap;html=1;fillColor=#CCE5FF;strokeColor=#66B2FF;" parent="1" vertex="1">
          <mxGeometry x="1441" y="580" width="100" height="40" as="geometry" />
        </mxCell>
        <mxCell id="nZ9N4Pl0c4IbJR1bZfCv-9" value="INCLUDE" style="rhombus;whiteSpace=wrap;html=1;fillColor=#FFFFCC;strokeColor=#FFCC99;" parent="1" vertex="1">
          <mxGeometry x="1300" y="394" width="100" height="40" as="geometry" />
        </mxCell>
        <mxCell id="nZ9N4Pl0c4IbJR1bZfCv-65" value="PASSATO" style="rounded=0;whiteSpace=wrap;html=1;fillColor=#CCE5FF;strokeColor=#66B2FF;container=0;" parent="1" vertex="1">
          <mxGeometry x="1220" y="270" width="100" height="40" as="geometry" />
        </mxCell>
        <mxCell id="-h9D7wXuSF3LVRJVjBPy-37" value="SEDE" style="rounded=0;whiteSpace=wrap;html=1;fillColor=#CCE5FF;strokeColor=#66B2FF;" parent="1" vertex="1">
          <mxGeometry x="1160" y="160" width="100" height="40" as="geometry" />
        </mxCell>
        <mxCell id="nZ9N4Pl0c4IbJR1bZfCv-5" value="PRODUZIONE" style="rounded=0;whiteSpace=wrap;html=1;fillColor=#CCE5FF;strokeColor=#66B2FF;container=0;" parent="1" vertex="1">
          <mxGeometry x="1220" y="70" width="120" height="40" as="geometry" />
        </mxCell>
        <mxCell id="nZ9N4Pl0c4IbJR1bZfCv-6" value="AMMINISTRATIVA" style="rounded=0;whiteSpace=wrap;html=1;fillColor=#CCE5FF;strokeColor=#66B2FF;container=0;" parent="1" vertex="1">
          <mxGeometry x="1080" y="70" width="120" height="40" as="geometry" />
        </mxCell>
        <mxCell id="nZ9N4Pl0c4IbJR1bZfCv-108" value="(1,N)" style="text;html=1;align=center;verticalAlign=middle;whiteSpace=wrap;rounded=0;fontColor=#FF3333;" parent="1" vertex="1">
          <mxGeometry x="918" y="194" width="60" height="30" as="geometry" />
        </mxCell>
        <mxCell id="nZ9N4Pl0c4IbJR1bZfCv-20" value="PARTE DI" style="rhombus;whiteSpace=wrap;html=1;fillColor=#FFFFCC;strokeColor=#FFCC99;" parent="1" vertex="1">
          <mxGeometry x="880" y="280" width="100" height="40" as="geometry" />
        </mxCell>
        <mxCell id="nZ9N4Pl0c4IbJR1bZfCv-312" value="" style="ellipse;whiteSpace=wrap;html=1;aspect=fixed;fillColor=#FFFFFF;strokeColor=default;" parent="1" vertex="1">
          <mxGeometry x="1205" y="220" width="10" height="10" as="geometry" />
        </mxCell>
        <mxCell id="nZ9N4Pl0c4IbJR1bZfCv-313" value="" style="endArrow=none;html=1;rounded=0;fontFamily=Helvetica;fontSize=12;fontColor=default;entryX=0.25;entryY=1;entryDx=0;entryDy=0;exitX=0.5;exitY=0;exitDx=0;exitDy=0;" parent="1" source="nZ9N4Pl0c4IbJR1bZfCv-312" edge="1">
          <mxGeometry width="50" height="50" relative="1" as="geometry">
            <mxPoint x="1215" y="240" as="sourcePoint" />
            <mxPoint x="1210" y="200" as="targetPoint" />
          </mxGeometry>
        </mxCell>
        <mxCell id="nZ9N4Pl0c4IbJR1bZfCv-316" value="ID_Produttore" style="text;html=1;align=center;verticalAlign=middle;resizable=0;points=[];autosize=1;strokeColor=none;fillColor=none;container=0;" parent="1" vertex="1">
          <mxGeometry x="790" y="119" width="100" height="30" as="geometry" />
        </mxCell>
        <mxCell id="nZ9N4Pl0c4IbJR1bZfCv-318" value="" style="ellipse;whiteSpace=wrap;html=1;aspect=fixed;fillColor=light-dark(#000000,#FFFFFF);strokeColor=default;container=0;" parent="1" vertex="1">
          <mxGeometry x="890" y="130" width="10" height="10" as="geometry" />
        </mxCell>
        <mxCell id="nZ9N4Pl0c4IbJR1bZfCv-319" value="" style="endArrow=none;html=1;rounded=0;entryX=0.5;entryY=1;entryDx=0;entryDy=0;" parent="1" target="nZ9N4Pl0c4IbJR1bZfCv-318" edge="1">
          <mxGeometry width="50" height="50" relative="1" as="geometry">
            <mxPoint x="895" y="160" as="sourcePoint" />
            <mxPoint x="965" y="140" as="targetPoint" />
          </mxGeometry>
        </mxCell>
        <mxCell id="nZ9N4Pl0c4IbJR1bZfCv-320" value="" style="ellipse;whiteSpace=wrap;html=1;aspect=fixed;fillColor=#FFFFFF;strokeColor=default;container=0;" parent="1" vertex="1">
          <mxGeometry x="960" y="130" width="10" height="10" as="geometry" />
        </mxCell>
        <mxCell id="nZ9N4Pl0c4IbJR1bZfCv-321" value="" style="endArrow=none;html=1;rounded=0;entryX=0.5;entryY=1;entryDx=0;entryDy=0;" parent="1" target="nZ9N4Pl0c4IbJR1bZfCv-320" edge="1">
          <mxGeometry width="50" height="50" relative="1" as="geometry">
            <mxPoint x="965" y="160" as="sourcePoint" />
            <mxPoint x="1035" y="140" as="targetPoint" />
          </mxGeometry>
        </mxCell>
        <mxCell id="nZ9N4Pl0c4IbJR1bZfCv-323" value="Nome" style="text;html=1;align=center;verticalAlign=middle;resizable=0;points=[];autosize=1;strokeColor=none;fillColor=none;container=0;" parent="1" vertex="1">
          <mxGeometry x="965" y="119" width="60" height="30" as="geometry" />
        </mxCell>
        <mxCell id="nZ9N4Pl0c4IbJR1bZfCv-324" value="" style="endArrow=none;html=1;rounded=0;entryX=1;entryY=0.5;entryDx=0;entryDy=0;exitX=0;exitY=0.5;exitDx=0;exitDy=0;" parent="1" source="-h9D7wXuSF3LVRJVjBPy-4" target="nZ9N4Pl0c4IbJR1bZfCv-325" edge="1">
          <mxGeometry width="50" height="50" relative="1" as="geometry">
            <mxPoint x="855" y="191" as="sourcePoint" />
            <mxPoint x="925" y="171" as="targetPoint" />
          </mxGeometry>
        </mxCell>
        <mxCell id="nZ9N4Pl0c4IbJR1bZfCv-325" value="" style="ellipse;whiteSpace=wrap;html=1;aspect=fixed;fillColor=#FFFFFF;strokeColor=default;container=0;" parent="1" vertex="1">
          <mxGeometry x="850" y="175" width="10" height="10" as="geometry" />
        </mxCell>
        <mxCell id="nZ9N4Pl0c4IbJR1bZfCv-326" value="" style="endArrow=none;html=1;rounded=0;entryX=1;entryY=0.5;entryDx=0;entryDy=0;" parent="1" edge="1">
          <mxGeometry width="50" height="50" relative="1" as="geometry">
            <mxPoint x="865" y="175" as="sourcePoint" />
            <mxPoint x="865" y="185" as="targetPoint" />
          </mxGeometry>
        </mxCell>
        <mxCell id="nZ9N4Pl0c4IbJR1bZfCv-327" value="ID_Sede" style="text;html=1;align=center;verticalAlign=middle;resizable=0;points=[];autosize=1;strokeColor=none;fillColor=none;container=0;" parent="1" vertex="1">
          <mxGeometry x="781" y="164" width="70" height="30" as="geometry" />
        </mxCell>
        <mxCell id="nZ9N4Pl0c4IbJR1bZfCv-329" value="" style="endArrow=none;html=1;rounded=0;entryX=0;entryY=0.5;entryDx=0;entryDy=0;entryPerimeter=0;exitX=0.5;exitY=0;exitDx=0;exitDy=0;strokeWidth=2;" parent="1" source="nZ9N4Pl0c4IbJR1bZfCv-23" target="nZ9N4Pl0c4IbJR1bZfCv-63" edge="1">
          <mxGeometry width="50" height="50" relative="1" as="geometry">
            <mxPoint x="1190" y="390" as="sourcePoint" />
            <mxPoint x="1220" y="330" as="targetPoint" />
          </mxGeometry>
        </mxCell>
        <mxCell id="nZ9N4Pl0c4IbJR1bZfCv-23" value="ORDINE" style="rounded=0;whiteSpace=wrap;html=1;fillColor=#CCE5FF;strokeColor=#66B2FF;" parent="1" vertex="1">
          <mxGeometry x="1160" y="394" width="100" height="40" as="geometry" />
        </mxCell>
        <mxCell id="nZ9N4Pl0c4IbJR1bZfCv-352" value="" style="endArrow=none;html=1;rounded=0;fontFamily=Helvetica;fontSize=12;fontColor=default;exitX=1;exitY=0.5;exitDx=0;exitDy=0;entryX=0;entryY=0.5;entryDx=0;entryDy=0;" parent="1" source="nZ9N4Pl0c4IbJR1bZfCv-21" target="nZ9N4Pl0c4IbJR1bZfCv-22" edge="1">
          <mxGeometry width="50" height="50" relative="1" as="geometry">
            <mxPoint x="1040" y="450" as="sourcePoint" />
            <mxPoint x="1090" y="400" as="targetPoint" />
          </mxGeometry>
        </mxCell>
        <mxCell id="nZ9N4Pl0c4IbJR1bZfCv-21" value="TEAM" style="rounded=0;whiteSpace=wrap;html=1;fillColor=#CCE5FF;strokeColor=#66B2FF;" parent="1" vertex="1">
          <mxGeometry x="880" y="394" width="100" height="40" as="geometry" />
        </mxCell>
        <mxCell id="nZ9N4Pl0c4IbJR1bZfCv-22" value="PREPARA" style="rhombus;whiteSpace=wrap;html=1;fillColor=#FFFFCC;strokeColor=#FFCC99;" parent="1" vertex="1">
          <mxGeometry x="1020" y="394" width="100" height="40" as="geometry" />
        </mxCell>
        <mxCell id="nZ9N4Pl0c4IbJR1bZfCv-353" value="ID_Installatore" style="text;html=1;align=center;verticalAlign=middle;resizable=0;points=[];autosize=1;strokeColor=none;fillColor=none;container=0;" parent="1" vertex="1">
          <mxGeometry x="1255" y="560" width="100" height="30" as="geometry" />
        </mxCell>
        <mxCell id="nZ9N4Pl0c4IbJR1bZfCv-354" value="ID_Produttore" style="text;html=1;align=center;verticalAlign=middle;resizable=0;points=[];autosize=1;strokeColor=none;fillColor=none;container=0;" parent="1" vertex="1">
          <mxGeometry x="1345" y="561" width="100" height="30" as="geometry" />
        </mxCell>
        <mxCell id="nZ9N4Pl0c4IbJR1bZfCv-356" value="" style="endArrow=none;html=1;rounded=0;entryX=0.5;entryY=1;entryDx=0;entryDy=0;" parent="1" target="nZ9N4Pl0c4IbJR1bZfCv-357" edge="1">
          <mxGeometry width="50" height="50" relative="1" as="geometry">
            <mxPoint x="1364.92" y="540" as="sourcePoint" />
            <mxPoint x="1365" y="580" as="targetPoint" />
          </mxGeometry>
        </mxCell>
        <mxCell id="nZ9N4Pl0c4IbJR1bZfCv-357" value="" style="ellipse;whiteSpace=wrap;html=1;aspect=fixed;fillColor=#FFFFFF;strokeColor=default;rotation=-180;container=0;" parent="1" vertex="1">
          <mxGeometry x="1360" y="555" width="10" height="10" as="geometry" />
        </mxCell>
        <mxCell id="nZ9N4Pl0c4IbJR1bZfCv-358" value="" style="endArrow=none;html=1;rounded=0;" parent="1" edge="1">
          <mxGeometry width="50" height="50" relative="1" as="geometry">
            <mxPoint x="1370" y="549.89" as="sourcePoint" />
            <mxPoint x="1360" y="549.89" as="targetPoint" />
          </mxGeometry>
        </mxCell>
        <mxCell id="nZ9N4Pl0c4IbJR1bZfCv-359" value="" style="endArrow=none;html=1;rounded=0;entryX=0.5;entryY=1;entryDx=0;entryDy=0;" parent="1" target="nZ9N4Pl0c4IbJR1bZfCv-361" edge="1">
          <mxGeometry width="50" height="50" relative="1" as="geometry">
            <mxPoint x="1334.92" y="540" as="sourcePoint" />
            <mxPoint x="1335" y="580" as="targetPoint" />
          </mxGeometry>
        </mxCell>
        <mxCell id="nZ9N4Pl0c4IbJR1bZfCv-360" value="" style="endArrow=none;html=1;rounded=0;" parent="1" edge="1">
          <mxGeometry width="50" height="50" relative="1" as="geometry">
            <mxPoint x="1340" y="550" as="sourcePoint" />
            <mxPoint x="1330" y="550" as="targetPoint" />
          </mxGeometry>
        </mxCell>
        <mxCell id="nZ9N4Pl0c4IbJR1bZfCv-361" value="" style="ellipse;whiteSpace=wrap;html=1;aspect=fixed;fillColor=#FFFFFF;strokeColor=default;rotation=-180;container=0;" parent="1" vertex="1">
          <mxGeometry x="1330" y="555" width="10" height="10" as="geometry" />
        </mxCell>
        <mxCell id="nZ9N4Pl0c4IbJR1bZfCv-366" value="Dimensioni" style="text;html=1;align=center;verticalAlign=middle;resizable=0;points=[];autosize=1;strokeColor=none;fillColor=none;container=0;" parent="1" vertex="1">
          <mxGeometry x="1390" y="650" width="80" height="30" as="geometry" />
        </mxCell>
        <mxCell id="nZ9N4Pl0c4IbJR1bZfCv-367" value="Peso" style="text;html=1;align=center;verticalAlign=middle;resizable=0;points=[];autosize=1;strokeColor=none;fillColor=none;container=0;" parent="1" vertex="1">
          <mxGeometry x="1521" y="650" width="50" height="30" as="geometry" />
        </mxCell>
        <mxCell id="nZ9N4Pl0c4IbJR1bZfCv-368" value="" style="ellipse;whiteSpace=wrap;html=1;aspect=fixed;fillColor=#FFFFFF;strokeColor=default;rotation=-180;container=0;" parent="1" vertex="1">
          <mxGeometry x="1521" y="640" width="10" height="10" as="geometry" />
        </mxCell>
        <mxCell id="nZ9N4Pl0c4IbJR1bZfCv-369" value="" style="endArrow=none;html=1;rounded=0;entryX=0.5;entryY=1;entryDx=0;entryDy=0;" parent="1" edge="1">
          <mxGeometry width="50" height="50" relative="1" as="geometry">
            <mxPoint x="1526" y="620" as="sourcePoint" />
            <mxPoint x="1526" y="640" as="targetPoint" />
          </mxGeometry>
        </mxCell>
        <mxCell id="nZ9N4Pl0c4IbJR1bZfCv-370" value="" style="endArrow=none;html=1;rounded=0;entryX=1;entryY=0.5;entryDx=0;entryDy=0;exitX=1;exitY=0.5;exitDx=0;exitDy=0;" parent="1" target="nZ9N4Pl0c4IbJR1bZfCv-371" edge="1">
          <mxGeometry width="50" height="50" relative="1" as="geometry">
            <mxPoint x="1541" y="600" as="sourcePoint" />
            <mxPoint x="1576" y="610" as="targetPoint" />
          </mxGeometry>
        </mxCell>
        <mxCell id="nZ9N4Pl0c4IbJR1bZfCv-371" value="" style="ellipse;whiteSpace=wrap;html=1;aspect=fixed;fillColor=#FFFFFF;strokeColor=default;rotation=-180;container=0;" parent="1" vertex="1">
          <mxGeometry x="1561" y="595" width="10" height="10" as="geometry" />
        </mxCell>
        <mxCell id="nZ9N4Pl0c4IbJR1bZfCv-372" value="Velocità&lt;div&gt;massima&lt;/div&gt;" style="text;html=1;align=center;verticalAlign=middle;resizable=0;points=[];autosize=1;strokeColor=none;fillColor=none;container=0;" parent="1" vertex="1">
          <mxGeometry x="1571" y="580" width="70" height="40" as="geometry" />
        </mxCell>
        <mxCell id="nZ9N4Pl0c4IbJR1bZfCv-373" value="" style="ellipse;whiteSpace=wrap;html=1;aspect=fixed;fillColor=#FFFFFF;strokeColor=default;rotation=-180;container=0;" parent="1" vertex="1">
          <mxGeometry x="1461" y="640" width="10" height="10" as="geometry" />
        </mxCell>
        <mxCell id="nZ9N4Pl0c4IbJR1bZfCv-374" value="" style="endArrow=none;html=1;rounded=0;entryX=0.5;entryY=1;entryDx=0;entryDy=0;" parent="1" edge="1">
          <mxGeometry width="50" height="50" relative="1" as="geometry">
            <mxPoint x="1466" y="620" as="sourcePoint" />
            <mxPoint x="1466" y="640" as="targetPoint" />
          </mxGeometry>
        </mxCell>
        <mxCell id="nZ9N4Pl0c4IbJR1bZfCv-375" value="" style="endArrow=none;html=1;rounded=0;exitX=1;exitY=1;exitDx=0;exitDy=0;" parent="1" edge="1">
          <mxGeometry width="50" height="50" relative="1" as="geometry">
            <mxPoint x="1541" y="620" as="sourcePoint" />
            <mxPoint x="1571" y="639" as="targetPoint" />
          </mxGeometry>
        </mxCell>
        <mxCell id="nZ9N4Pl0c4IbJR1bZfCv-376" value="" style="ellipse;whiteSpace=wrap;html=1;aspect=fixed;fillColor=#000000;strokeColor=default;rotation=-180;container=0;" parent="1" vertex="1">
          <mxGeometry x="1571" y="635" width="10" height="10" as="geometry" />
        </mxCell>
        <mxCell id="nZ9N4Pl0c4IbJR1bZfCv-377" value="Codice" style="text;html=1;align=center;verticalAlign=middle;resizable=0;points=[];autosize=1;strokeColor=none;fillColor=none;container=0;" parent="1" vertex="1">
          <mxGeometry x="1576" y="635" width="60" height="30" as="geometry" />
        </mxCell>
        <mxCell id="nZ9N4Pl0c4IbJR1bZfCv-378" value="" style="ellipse;whiteSpace=wrap;html=1;aspect=fixed;fillColor=#FFFFFF;strokeColor=default;container=0;" parent="1" vertex="1">
          <mxGeometry x="760" y="50" width="10" height="10" as="geometry" />
        </mxCell>
        <mxCell id="nZ9N4Pl0c4IbJR1bZfCv-379" value="" style="endArrow=none;html=1;rounded=0;entryX=0.5;entryY=1;entryDx=0;entryDy=0;" parent="1" target="nZ9N4Pl0c4IbJR1bZfCv-378" edge="1">
          <mxGeometry width="50" height="50" relative="1" as="geometry">
            <mxPoint x="765" y="80" as="sourcePoint" />
            <mxPoint x="835" y="60" as="targetPoint" />
          </mxGeometry>
        </mxCell>
        <mxCell id="nZ9N4Pl0c4IbJR1bZfCv-380" value="" style="ellipse;whiteSpace=wrap;html=1;aspect=fixed;fillColor=#FFFFFF;strokeColor=default;container=0;" parent="1" vertex="1">
          <mxGeometry x="810" y="50" width="10" height="10" as="geometry" />
        </mxCell>
        <mxCell id="nZ9N4Pl0c4IbJR1bZfCv-381" value="" style="endArrow=none;html=1;rounded=0;entryX=0.5;entryY=1;entryDx=0;entryDy=0;" parent="1" target="nZ9N4Pl0c4IbJR1bZfCv-380" edge="1">
          <mxGeometry width="50" height="50" relative="1" as="geometry">
            <mxPoint x="815" y="80" as="sourcePoint" />
            <mxPoint x="885" y="60" as="targetPoint" />
          </mxGeometry>
        </mxCell>
        <mxCell id="nZ9N4Pl0c4IbJR1bZfCv-382" value="" style="ellipse;whiteSpace=wrap;html=1;aspect=fixed;fillColor=#FFFFFF;strokeColor=default;container=0;" parent="1" vertex="1">
          <mxGeometry x="710.5" y="95" width="10" height="10" as="geometry" />
        </mxCell>
        <mxCell id="nZ9N4Pl0c4IbJR1bZfCv-383" value="" style="endArrow=none;html=1;rounded=0;exitX=0;exitY=0.5;exitDx=0;exitDy=0;" parent="1" source="nZ9N4Pl0c4IbJR1bZfCv-157" edge="1">
          <mxGeometry width="50" height="50" relative="1" as="geometry">
            <mxPoint x="705" y="105" as="sourcePoint" />
            <mxPoint x="720" y="100" as="targetPoint" />
          </mxGeometry>
        </mxCell>
        <mxCell id="nZ9N4Pl0c4IbJR1bZfCv-384" value="Orario inizio" style="text;html=1;align=center;verticalAlign=middle;resizable=0;points=[];autosize=1;strokeColor=none;fillColor=none;container=0;" parent="1" vertex="1">
          <mxGeometry x="680" y="20" width="90" height="30" as="geometry" />
        </mxCell>
        <mxCell id="nZ9N4Pl0c4IbJR1bZfCv-385" value="Orario fine" style="text;html=1;align=center;verticalAlign=middle;resizable=0;points=[];autosize=1;strokeColor=none;fillColor=none;container=0;" parent="1" vertex="1">
          <mxGeometry x="805" y="20" width="80" height="30" as="geometry" />
        </mxCell>
        <mxCell id="nZ9N4Pl0c4IbJR1bZfCv-386" value="ID_Team" style="text;html=1;align=center;verticalAlign=middle;resizable=0;points=[];autosize=1;strokeColor=none;fillColor=none;container=0;" parent="1" vertex="1">
          <mxGeometry x="642" y="85" width="70" height="30" as="geometry" />
        </mxCell>
        <mxCell id="nZ9N4Pl0c4IbJR1bZfCv-387" value="" style="endArrow=none;html=1;rounded=0;entryX=1;entryY=0.5;entryDx=0;entryDy=0;" parent="1" edge="1">
          <mxGeometry width="50" height="50" relative="1" as="geometry">
            <mxPoint x="725.85" y="95" as="sourcePoint" />
            <mxPoint x="725.85" y="105" as="targetPoint" />
          </mxGeometry>
        </mxCell>
        <mxCell id="nZ9N4Pl0c4IbJR1bZfCv-389" value="" style="ellipse;whiteSpace=wrap;html=1;aspect=fixed;fillColor=#000000;strokeColor=default;container=0;" parent="1" vertex="1">
          <mxGeometry x="850" y="409" width="10" height="10" as="geometry" />
        </mxCell>
        <mxCell id="nZ9N4Pl0c4IbJR1bZfCv-390" value="" style="endArrow=none;html=1;rounded=0;fontFamily=Helvetica;fontSize=12;fontColor=default;entryX=0;entryY=0.5;entryDx=0;entryDy=0;" parent="1" target="nZ9N4Pl0c4IbJR1bZfCv-21" edge="1">
          <mxGeometry width="50" height="50" relative="1" as="geometry">
            <mxPoint x="860" y="414" as="sourcePoint" />
            <mxPoint x="900" y="370" as="targetPoint" />
          </mxGeometry>
        </mxCell>
        <mxCell id="nZ9N4Pl0c4IbJR1bZfCv-391" value="Settore" style="text;html=1;align=center;verticalAlign=middle;whiteSpace=wrap;rounded=0;fontFamily=Helvetica;fontSize=12;fontColor=default;" parent="1" vertex="1">
          <mxGeometry x="792" y="399" width="60" height="30" as="geometry" />
        </mxCell>
        <mxCell id="nZ9N4Pl0c4IbJR1bZfCv-392" value="Numero&lt;div&gt;membri&lt;/div&gt;" style="text;html=1;align=center;verticalAlign=middle;whiteSpace=wrap;rounded=0;fontFamily=Helvetica;fontSize=12;fontColor=default;" parent="1" vertex="1">
          <mxGeometry x="900" y="464" width="60" height="30" as="geometry" />
        </mxCell>
        <mxCell id="nZ9N4Pl0c4IbJR1bZfCv-393" value="" style="endArrow=none;html=1;rounded=0;fontFamily=Helvetica;fontSize=12;fontColor=default;" parent="1" edge="1">
          <mxGeometry width="50" height="50" relative="1" as="geometry">
            <mxPoint x="930" y="454" as="sourcePoint" />
            <mxPoint x="930" y="434" as="targetPoint" />
          </mxGeometry>
        </mxCell>
        <mxCell id="nZ9N4Pl0c4IbJR1bZfCv-394" value="" style="ellipse;whiteSpace=wrap;html=1;aspect=fixed;fillColor=none;strokeColor=default;container=0;" parent="1" vertex="1">
          <mxGeometry x="925" y="454" width="10" height="10" as="geometry" />
        </mxCell>
        <mxCell id="nZ9N4Pl0c4IbJR1bZfCv-395" value="" style="endArrow=none;html=1;rounded=0;fontFamily=Helvetica;fontSize=12;fontColor=default;exitX=1;exitY=1;exitDx=0;exitDy=0;" parent="1" source="nZ9N4Pl0c4IbJR1bZfCv-3" edge="1">
          <mxGeometry width="50" height="50" relative="1" as="geometry">
            <mxPoint x="1239.5" y="907" as="sourcePoint" />
            <mxPoint x="1249.5" y="907" as="targetPoint" />
          </mxGeometry>
        </mxCell>
        <mxCell id="nZ9N4Pl0c4IbJR1bZfCv-396" value="" style="ellipse;whiteSpace=wrap;html=1;aspect=fixed;fillColor=#FFFFFF;strokeColor=default;rotation=-180;container=0;" parent="1" vertex="1">
          <mxGeometry x="1248.5" y="904" width="10" height="10" as="geometry" />
        </mxCell>
        <mxCell id="nZ9N4Pl0c4IbJR1bZfCv-3" value="FORNITURA" style="rhombus;whiteSpace=wrap;html=1;fillColor=#FFFFCC;strokeColor=#FFCC99;" parent="1" vertex="1">
          <mxGeometry x="1159.5" y="867" width="100" height="40" as="geometry" />
        </mxCell>
        <mxCell id="nZ9N4Pl0c4IbJR1bZfCv-397" value="Quantità" style="text;html=1;align=center;verticalAlign=middle;resizable=0;points=[];autosize=1;strokeColor=none;fillColor=none;container=0;" parent="1" vertex="1">
          <mxGeometry x="1254.5" y="898" width="70" height="30" as="geometry" />
        </mxCell>
        <mxCell id="nZ9N4Pl0c4IbJR1bZfCv-398" value="" style="group" parent="1" vertex="1" connectable="0">
          <mxGeometry x="660" y="194" width="190" height="99" as="geometry" />
        </mxCell>
        <mxCell id="nZ9N4Pl0c4IbJR1bZfCv-399" value="CONTATTI" style="ellipse;whiteSpace=wrap;html=1;fillColor=default;container=0;" parent="nZ9N4Pl0c4IbJR1bZfCv-398" vertex="1">
          <mxGeometry x="90" y="29" width="100" height="40" as="geometry" />
        </mxCell>
        <mxCell id="nZ9N4Pl0c4IbJR1bZfCv-400" value="" style="endArrow=none;html=1;rounded=0;entryX=0;entryY=0;entryDx=0;entryDy=0;exitX=1;exitY=0;exitDx=0;exitDy=0;" parent="nZ9N4Pl0c4IbJR1bZfCv-398" source="nZ9N4Pl0c4IbJR1bZfCv-405" target="nZ9N4Pl0c4IbJR1bZfCv-399" edge="1">
          <mxGeometry width="50" height="50" relative="1" as="geometry">
            <mxPoint x="145" y="19" as="sourcePoint" />
            <mxPoint x="145" y="39" as="targetPoint" />
          </mxGeometry>
        </mxCell>
        <mxCell id="nZ9N4Pl0c4IbJR1bZfCv-401" value="" style="ellipse;whiteSpace=wrap;html=1;aspect=fixed;fillColor=none;strokeColor=default;direction=south;container=0;" parent="nZ9N4Pl0c4IbJR1bZfCv-398" vertex="1">
          <mxGeometry x="70" y="79" width="10" height="10" as="geometry" />
        </mxCell>
        <mxCell id="nZ9N4Pl0c4IbJR1bZfCv-402" value="" style="endArrow=none;html=1;rounded=0;entryX=0;entryY=1;entryDx=0;entryDy=0;exitX=0;exitY=0;exitDx=0;exitDy=0;" parent="nZ9N4Pl0c4IbJR1bZfCv-398" source="nZ9N4Pl0c4IbJR1bZfCv-401" target="nZ9N4Pl0c4IbJR1bZfCv-399" edge="1">
          <mxGeometry width="50" height="50" relative="1" as="geometry">
            <mxPoint x="185" y="40" as="sourcePoint" />
            <mxPoint x="115" y="60" as="targetPoint" />
            <Array as="points" />
          </mxGeometry>
        </mxCell>
        <mxCell id="nZ9N4Pl0c4IbJR1bZfCv-403" value="Email" style="text;html=1;align=center;verticalAlign=middle;resizable=0;points=[];autosize=1;strokeColor=none;fillColor=none;container=0;" parent="nZ9N4Pl0c4IbJR1bZfCv-398" vertex="1">
          <mxGeometry x="20" width="50" height="30" as="geometry" />
        </mxCell>
        <mxCell id="nZ9N4Pl0c4IbJR1bZfCv-404" value="Telefono" style="text;html=1;align=center;verticalAlign=middle;resizable=0;points=[];autosize=1;strokeColor=none;fillColor=none;container=0;" parent="nZ9N4Pl0c4IbJR1bZfCv-398" vertex="1">
          <mxGeometry y="69" width="70" height="30" as="geometry" />
        </mxCell>
        <mxCell id="nZ9N4Pl0c4IbJR1bZfCv-405" value="" style="ellipse;whiteSpace=wrap;html=1;aspect=fixed;fillColor=none;strokeColor=default;direction=south;container=0;" parent="nZ9N4Pl0c4IbJR1bZfCv-398" vertex="1">
          <mxGeometry x="70" y="10" width="10" height="10" as="geometry" />
        </mxCell>
        <mxCell id="nZ9N4Pl0c4IbJR1bZfCv-407" value="" style="endArrow=none;html=1;rounded=0;entryX=1;entryY=0.5;entryDx=0;entryDy=0;exitX=0;exitY=1;exitDx=0;exitDy=0;" parent="1" source="-h9D7wXuSF3LVRJVjBPy-4" target="nZ9N4Pl0c4IbJR1bZfCv-399" edge="1">
          <mxGeometry width="50" height="50" relative="1" as="geometry">
            <mxPoint x="749" y="223" as="sourcePoint" />
            <mxPoint x="775" y="239" as="targetPoint" />
          </mxGeometry>
        </mxCell>
        <mxCell id="nZ9N4Pl0c4IbJR1bZfCv-408" value="" style="group" parent="1" vertex="1" connectable="0">
          <mxGeometry x="799.5" y="758" width="190" height="99" as="geometry" />
        </mxCell>
        <mxCell id="nZ9N4Pl0c4IbJR1bZfCv-409" value="CONTATTI" style="ellipse;whiteSpace=wrap;html=1;fillColor=default;container=0;" parent="nZ9N4Pl0c4IbJR1bZfCv-408" vertex="1">
          <mxGeometry x="90" y="29" width="100" height="40" as="geometry" />
        </mxCell>
        <mxCell id="nZ9N4Pl0c4IbJR1bZfCv-410" value="" style="endArrow=none;html=1;rounded=0;entryX=0;entryY=0;entryDx=0;entryDy=0;exitX=1;exitY=0;exitDx=0;exitDy=0;" parent="nZ9N4Pl0c4IbJR1bZfCv-408" source="nZ9N4Pl0c4IbJR1bZfCv-415" target="nZ9N4Pl0c4IbJR1bZfCv-409" edge="1">
          <mxGeometry width="50" height="50" relative="1" as="geometry">
            <mxPoint x="325.2155339061761" y="278.995533906176" as="sourcePoint" />
            <mxPoint x="351.32466094067297" y="295.3178643762692" as="targetPoint" />
          </mxGeometry>
        </mxCell>
        <mxCell id="nZ9N4Pl0c4IbJR1bZfCv-411" value="" style="ellipse;whiteSpace=wrap;html=1;aspect=fixed;fillColor=none;strokeColor=default;direction=south;container=0;" parent="nZ9N4Pl0c4IbJR1bZfCv-408" vertex="1">
          <mxGeometry x="70" y="79" width="10" height="10" as="geometry" />
        </mxCell>
        <mxCell id="nZ9N4Pl0c4IbJR1bZfCv-412" value="" style="endArrow=none;html=1;rounded=0;entryX=0;entryY=1;entryDx=0;entryDy=0;exitX=0;exitY=0;exitDx=0;exitDy=0;" parent="nZ9N4Pl0c4IbJR1bZfCv-408" source="nZ9N4Pl0c4IbJR1bZfCv-411" target="nZ9N4Pl0c4IbJR1bZfCv-409" edge="1">
          <mxGeometry width="50" height="50" relative="1" as="geometry">
            <mxPoint x="185" y="40" as="sourcePoint" />
            <mxPoint x="115" y="60" as="targetPoint" />
            <Array as="points" />
          </mxGeometry>
        </mxCell>
        <mxCell id="nZ9N4Pl0c4IbJR1bZfCv-413" value="Email" style="text;html=1;align=center;verticalAlign=middle;resizable=0;points=[];autosize=1;strokeColor=none;fillColor=none;container=0;" parent="nZ9N4Pl0c4IbJR1bZfCv-408" vertex="1">
          <mxGeometry x="20" width="50" height="30" as="geometry" />
        </mxCell>
        <mxCell id="nZ9N4Pl0c4IbJR1bZfCv-414" value="Telefono" style="text;html=1;align=center;verticalAlign=middle;resizable=0;points=[];autosize=1;strokeColor=none;fillColor=none;container=0;" parent="nZ9N4Pl0c4IbJR1bZfCv-408" vertex="1">
          <mxGeometry y="69" width="70" height="30" as="geometry" />
        </mxCell>
        <mxCell id="nZ9N4Pl0c4IbJR1bZfCv-415" value="" style="ellipse;whiteSpace=wrap;html=1;aspect=fixed;fillColor=none;strokeColor=default;direction=south;container=0;" parent="nZ9N4Pl0c4IbJR1bZfCv-408" vertex="1">
          <mxGeometry x="70" y="10" width="10" height="10" as="geometry" />
        </mxCell>
        <mxCell id="nZ9N4Pl0c4IbJR1bZfCv-416" value="" style="endArrow=none;html=1;rounded=0;entryX=1;entryY=0.5;entryDx=0;entryDy=0;exitX=0;exitY=0;exitDx=0;exitDy=0;" parent="1" source="-h9D7wXuSF3LVRJVjBPy-39" target="nZ9N4Pl0c4IbJR1bZfCv-409" edge="1">
          <mxGeometry width="50" height="50" relative="1" as="geometry">
            <mxPoint x="1079.5" y="832" as="sourcePoint" />
            <mxPoint x="1079.5" y="792" as="targetPoint" />
          </mxGeometry>
        </mxCell>
        <mxCell id="nZ9N4Pl0c4IbJR1bZfCv-421" value="" style="ellipse;whiteSpace=wrap;html=1;aspect=fixed;fillColor=#000000;strokeColor=default;container=0;fillStyle=solid;" parent="1" vertex="1">
          <mxGeometry x="1129.5" y="802" width="10" height="10" as="geometry" />
        </mxCell>
        <mxCell id="nZ9N4Pl0c4IbJR1bZfCv-422" value="" style="endArrow=none;html=1;rounded=0;entryX=0;entryY=0.5;entryDx=0;entryDy=0;" parent="1" target="-h9D7wXuSF3LVRJVjBPy-38" edge="1">
          <mxGeometry width="50" height="50" relative="1" as="geometry">
            <mxPoint x="1139.5" y="807" as="sourcePoint" />
            <mxPoint x="1190.5" y="783" as="targetPoint" />
          </mxGeometry>
        </mxCell>
        <mxCell id="nZ9N4Pl0c4IbJR1bZfCv-423" value="Nome" style="text;html=1;align=center;verticalAlign=middle;resizable=0;points=[];autosize=1;strokeColor=none;fillColor=none;container=0;" parent="1" vertex="1">
          <mxGeometry x="1099.5" y="772" width="60" height="30" as="geometry" />
        </mxCell>
        <mxCell id="nZ9N4Pl0c4IbJR1bZfCv-424" value="" style="ellipse;whiteSpace=wrap;html=1;aspect=fixed;fillColor=#000000;strokeColor=default;container=0;" parent="1" vertex="1">
          <mxGeometry x="1064.5" y="837" width="10" height="10" as="geometry" />
        </mxCell>
        <mxCell id="nZ9N4Pl0c4IbJR1bZfCv-425" value="" style="endArrow=none;html=1;rounded=0;entryX=0.5;entryY=1;entryDx=0;entryDy=0;" parent="1" target="nZ9N4Pl0c4IbJR1bZfCv-424" edge="1">
          <mxGeometry width="50" height="50" relative="1" as="geometry">
            <mxPoint x="1069.5" y="867" as="sourcePoint" />
            <mxPoint x="1139.5" y="847" as="targetPoint" />
          </mxGeometry>
        </mxCell>
        <mxCell id="nZ9N4Pl0c4IbJR1bZfCv-426" value="ID_Fornitore" style="text;html=1;align=center;verticalAlign=middle;resizable=0;points=[];autosize=1;strokeColor=none;fillColor=none;container=0;" parent="1" vertex="1">
          <mxGeometry x="1024.5" y="812" width="90" height="30" as="geometry" />
        </mxCell>
        <mxCell id="nZ9N4Pl0c4IbJR1bZfCv-427" value="Nome" style="text;html=1;align=center;verticalAlign=middle;resizable=0;points=[];autosize=1;strokeColor=none;fillColor=none;container=0;" parent="1" vertex="1">
          <mxGeometry x="1039.5" y="931" width="60" height="30" as="geometry" />
        </mxCell>
        <mxCell id="nZ9N4Pl0c4IbJR1bZfCv-428" value="" style="ellipse;whiteSpace=wrap;html=1;aspect=fixed;fillColor=none;strokeColor=default;container=0;" parent="1" vertex="1">
          <mxGeometry x="1064.5" y="927" width="10" height="10" as="geometry" />
        </mxCell>
        <mxCell id="nZ9N4Pl0c4IbJR1bZfCv-429" value="" style="endArrow=none;html=1;rounded=0;entryX=0.5;entryY=1;entryDx=0;entryDy=0;exitX=0.5;exitY=0;exitDx=0;exitDy=0;" parent="1" source="nZ9N4Pl0c4IbJR1bZfCv-428" edge="1">
          <mxGeometry width="50" height="50" relative="1" as="geometry">
            <mxPoint x="1069.39" y="921" as="sourcePoint" />
            <mxPoint x="1069.39" y="907" as="targetPoint" />
          </mxGeometry>
        </mxCell>
        <mxCell id="nZ9N4Pl0c4IbJR1bZfCv-158" value="RISPETTA" style="rhombus;whiteSpace=wrap;html=1;fillColor=#FFFFCC;strokeColor=#FFCC99;" parent="1" vertex="1">
          <mxGeometry x="880" y="80" width="100" height="40" as="geometry" />
        </mxCell>
        <mxCell id="-h9D7wXuSF3LVRJVjBPy-4" value="PRODUTTORE" style="rounded=0;whiteSpace=wrap;html=1;fillColor=#CCE5FF;strokeColor=#66B2FF;" parent="1" vertex="1">
          <mxGeometry x="880" y="160" width="100" height="40" as="geometry" />
        </mxCell>
        <mxCell id="nZ9N4Pl0c4IbJR1bZfCv-157" value="&lt;div&gt;PROGRAMMA&lt;/div&gt;" style="rounded=0;whiteSpace=wrap;html=1;fillColor=#CCE5FF;strokeColor=#66B2FF;" parent="1" vertex="1">
          <mxGeometry x="740" y="80" width="100" height="40" as="geometry" />
        </mxCell>
        <mxCell id="nZ9N4Pl0c4IbJR1bZfCv-4" value="LAVORA IN" style="rhombus;whiteSpace=wrap;html=1;fillColor=#FFFFCC;strokeColor=#FFCC99;" parent="1" vertex="1">
          <mxGeometry x="1020" y="160" width="100" height="40" as="geometry" />
        </mxCell>
        <mxCell id="nZ9N4Pl0c4IbJR1bZfCv-460" value="(1,1)" style="text;html=1;align=center;verticalAlign=middle;whiteSpace=wrap;rounded=0;fontColor=#FF3333;" parent="1" vertex="1">
          <mxGeometry x="918" y="134" width="60" height="30" as="geometry" />
        </mxCell>
        <mxCell id="nZ9N4Pl0c4IbJR1bZfCv-461" value="(1,1)" style="text;html=1;align=center;verticalAlign=middle;whiteSpace=wrap;rounded=0;fontColor=#FF3333;" parent="1" vertex="1">
          <mxGeometry x="825" y="75" width="60" height="30" as="geometry" />
        </mxCell>
        <mxCell id="nZ9N4Pl0c4IbJR1bZfCv-474" value="" style="group" parent="1" vertex="1" connectable="0">
          <mxGeometry x="1107" y="344" width="245" height="145" as="geometry" />
        </mxCell>
        <mxCell id="nZ9N4Pl0c4IbJR1bZfCv-466" value="" style="group" parent="nZ9N4Pl0c4IbJR1bZfCv-474" vertex="1" connectable="0">
          <mxGeometry x="108" y="90" width="60" height="55" as="geometry" />
        </mxCell>
        <mxCell id="nZ9N4Pl0c4IbJR1bZfCv-335" value="Prezzo" style="text;html=1;align=center;verticalAlign=middle;resizable=0;points=[];autosize=1;strokeColor=none;fillColor=none;container=0;" parent="nZ9N4Pl0c4IbJR1bZfCv-466" vertex="1">
          <mxGeometry y="25" width="60" height="30" as="geometry" />
        </mxCell>
        <mxCell id="nZ9N4Pl0c4IbJR1bZfCv-465" value="" style="group" parent="nZ9N4Pl0c4IbJR1bZfCv-466" vertex="1" connectable="0">
          <mxGeometry x="25" width="10" height="26" as="geometry" />
        </mxCell>
        <mxCell id="nZ9N4Pl0c4IbJR1bZfCv-344" value="" style="ellipse;whiteSpace=wrap;html=1;aspect=fixed;fillColor=none;strokeColor=default;rotation=-180;container=0;" parent="nZ9N4Pl0c4IbJR1bZfCv-465" vertex="1">
          <mxGeometry y="16" width="10" height="10" as="geometry" />
        </mxCell>
        <mxCell id="nZ9N4Pl0c4IbJR1bZfCv-345" value="" style="endArrow=none;html=1;rounded=0;entryX=0.5;entryY=1;entryDx=0;entryDy=0;" parent="nZ9N4Pl0c4IbJR1bZfCv-465" target="nZ9N4Pl0c4IbJR1bZfCv-344" edge="1">
          <mxGeometry width="50" height="50" relative="1" as="geometry">
            <mxPoint x="5" as="sourcePoint" />
            <mxPoint x="-65" y="20" as="targetPoint" />
          </mxGeometry>
        </mxCell>
        <mxCell id="nZ9N4Pl0c4IbJR1bZfCv-467" value="" style="group" parent="nZ9N4Pl0c4IbJR1bZfCv-474" vertex="1" connectable="0">
          <mxGeometry x="28" y="90" width="80" height="55" as="geometry" />
        </mxCell>
        <mxCell id="nZ9N4Pl0c4IbJR1bZfCv-334" value="ID_Cliente" style="text;html=1;align=center;verticalAlign=middle;resizable=0;points=[];autosize=1;strokeColor=none;fillColor=none;container=0;" parent="nZ9N4Pl0c4IbJR1bZfCv-467" vertex="1">
          <mxGeometry y="25" width="80" height="30" as="geometry" />
        </mxCell>
        <mxCell id="nZ9N4Pl0c4IbJR1bZfCv-464" value="" style="group" parent="nZ9N4Pl0c4IbJR1bZfCv-467" vertex="1" connectable="0">
          <mxGeometry x="35" width="10" height="26" as="geometry" />
        </mxCell>
        <mxCell id="nZ9N4Pl0c4IbJR1bZfCv-339" value="" style="ellipse;whiteSpace=wrap;html=1;aspect=fixed;fillColor=#FFFFFF;strokeColor=default;rotation=-180;container=0;" parent="nZ9N4Pl0c4IbJR1bZfCv-464" vertex="1">
          <mxGeometry y="16" width="10" height="10" as="geometry" />
        </mxCell>
        <mxCell id="nZ9N4Pl0c4IbJR1bZfCv-340" value="" style="endArrow=none;html=1;rounded=0;entryX=0.5;entryY=1;entryDx=0;entryDy=0;" parent="nZ9N4Pl0c4IbJR1bZfCv-464" target="nZ9N4Pl0c4IbJR1bZfCv-339" edge="1">
          <mxGeometry width="50" height="50" relative="1" as="geometry">
            <mxPoint x="5" as="sourcePoint" />
            <mxPoint x="-66" y="9" as="targetPoint" />
          </mxGeometry>
        </mxCell>
        <mxCell id="nZ9N4Pl0c4IbJR1bZfCv-341" value="" style="endArrow=none;html=1;rounded=0;" parent="nZ9N4Pl0c4IbJR1bZfCv-464" edge="1">
          <mxGeometry width="50" height="50" relative="1" as="geometry">
            <mxPoint y="10" as="sourcePoint" />
            <mxPoint x="10" y="10" as="targetPoint" />
          </mxGeometry>
        </mxCell>
        <mxCell id="nZ9N4Pl0c4IbJR1bZfCv-469" value="" style="group" parent="nZ9N4Pl0c4IbJR1bZfCv-474" vertex="1" connectable="0">
          <mxGeometry width="90" height="50" as="geometry" />
        </mxCell>
        <mxCell id="nZ9N4Pl0c4IbJR1bZfCv-333" value="ID_Prodotto" style="text;html=1;align=center;verticalAlign=middle;resizable=0;points=[];autosize=1;strokeColor=none;fillColor=none;container=0;" parent="nZ9N4Pl0c4IbJR1bZfCv-469" vertex="1">
          <mxGeometry width="90" height="30" as="geometry" />
        </mxCell>
        <mxCell id="nZ9N4Pl0c4IbJR1bZfCv-468" value="" style="group" parent="nZ9N4Pl0c4IbJR1bZfCv-469" vertex="1" connectable="0">
          <mxGeometry x="63" y="26" width="10" height="24" as="geometry" />
        </mxCell>
        <mxCell id="nZ9N4Pl0c4IbJR1bZfCv-336" value="" style="ellipse;whiteSpace=wrap;html=1;aspect=fixed;fillColor=#FFFFFF;strokeColor=default;rotation=0;container=0;" parent="nZ9N4Pl0c4IbJR1bZfCv-468" vertex="1">
          <mxGeometry width="10" height="10" as="geometry" />
        </mxCell>
        <mxCell id="nZ9N4Pl0c4IbJR1bZfCv-337" value="" style="endArrow=none;html=1;rounded=0;entryX=0.5;entryY=1;entryDx=0;entryDy=0;" parent="nZ9N4Pl0c4IbJR1bZfCv-468" target="nZ9N4Pl0c4IbJR1bZfCv-336" edge="1">
          <mxGeometry width="50" height="50" relative="1" as="geometry">
            <mxPoint x="5" y="24" as="sourcePoint" />
            <mxPoint x="76" y="15" as="targetPoint" />
          </mxGeometry>
        </mxCell>
        <mxCell id="nZ9N4Pl0c4IbJR1bZfCv-338" value="" style="endArrow=none;html=1;rounded=0;" parent="nZ9N4Pl0c4IbJR1bZfCv-468" edge="1">
          <mxGeometry width="50" height="50" relative="1" as="geometry">
            <mxPoint x="10" y="15" as="sourcePoint" />
            <mxPoint y="15" as="targetPoint" />
          </mxGeometry>
        </mxCell>
        <mxCell id="nZ9N4Pl0c4IbJR1bZfCv-471" value="" style="group" parent="nZ9N4Pl0c4IbJR1bZfCv-474" vertex="1" connectable="0">
          <mxGeometry x="152" y="6" width="93" height="45" as="geometry" />
        </mxCell>
        <mxCell id="nZ9N4Pl0c4IbJR1bZfCv-351" value="ID_Ordine" style="text;html=1;align=center;verticalAlign=middle;resizable=0;points=[];autosize=1;strokeColor=none;fillColor=none;container=0;" parent="nZ9N4Pl0c4IbJR1bZfCv-471" vertex="1">
          <mxGeometry x="13" width="80" height="30" as="geometry" />
        </mxCell>
        <mxCell id="nZ9N4Pl0c4IbJR1bZfCv-470" value="" style="group" parent="nZ9N4Pl0c4IbJR1bZfCv-471" vertex="1" connectable="0">
          <mxGeometry y="19.928932188134524" width="25.071067811865532" height="25.071067811865476" as="geometry" />
        </mxCell>
        <mxCell id="nZ9N4Pl0c4IbJR1bZfCv-346" value="" style="ellipse;whiteSpace=wrap;html=1;aspect=fixed;fillColor=light-dark(#000000,#FFFFFF);strokeColor=default;rotation=45;container=0;" parent="nZ9N4Pl0c4IbJR1bZfCv-470" vertex="1">
          <mxGeometry x="13" y="2.0710678118654755" width="10" height="10" as="geometry" />
        </mxCell>
        <mxCell id="nZ9N4Pl0c4IbJR1bZfCv-347" value="" style="endArrow=none;html=1;rounded=0;entryX=0.5;entryY=1;entryDx=0;entryDy=0;" parent="nZ9N4Pl0c4IbJR1bZfCv-470" target="nZ9N4Pl0c4IbJR1bZfCv-346" edge="1">
          <mxGeometry width="50" height="50" relative="1" as="geometry">
            <mxPoint y="25.071067811865476" as="sourcePoint" />
            <mxPoint x="64" y="61.071067811865476" as="targetPoint" />
          </mxGeometry>
        </mxCell>
        <mxCell id="nZ9N4Pl0c4IbJR1bZfCv-473" value="" style="group" parent="nZ9N4Pl0c4IbJR1bZfCv-474" vertex="1" connectable="0">
          <mxGeometry x="100" y="2" width="70" height="48" as="geometry" />
        </mxCell>
        <mxCell id="nZ9N4Pl0c4IbJR1bZfCv-331" value="Quantità" style="text;html=1;align=center;verticalAlign=middle;resizable=0;points=[];autosize=1;strokeColor=none;fillColor=none;container=0;" parent="nZ9N4Pl0c4IbJR1bZfCv-473" vertex="1">
          <mxGeometry width="70" height="30" as="geometry" />
        </mxCell>
        <mxCell id="nZ9N4Pl0c4IbJR1bZfCv-472" value="" style="group" parent="nZ9N4Pl0c4IbJR1bZfCv-473" vertex="1" connectable="0">
          <mxGeometry x="33" y="24" width="10" height="24" as="geometry" />
        </mxCell>
        <mxCell id="nZ9N4Pl0c4IbJR1bZfCv-342" value="" style="ellipse;whiteSpace=wrap;html=1;aspect=fixed;fillColor=none;strokeColor=default;container=0;" parent="nZ9N4Pl0c4IbJR1bZfCv-472" vertex="1">
          <mxGeometry width="10" height="10" as="geometry" />
        </mxCell>
        <mxCell id="nZ9N4Pl0c4IbJR1bZfCv-343" value="" style="endArrow=none;html=1;rounded=0;entryX=0.5;entryY=1;entryDx=0;entryDy=0;" parent="nZ9N4Pl0c4IbJR1bZfCv-472" target="nZ9N4Pl0c4IbJR1bZfCv-342" edge="1">
          <mxGeometry width="50" height="50" relative="1" as="geometry">
            <mxPoint x="5" y="24" as="sourcePoint" />
            <mxPoint x="75" y="4" as="targetPoint" />
          </mxGeometry>
        </mxCell>
        <mxCell id="O01UDQ-qmWV1Ew-ezUbk-1" value="" style="group;rotation=90;" vertex="1" connectable="0" parent="nZ9N4Pl0c4IbJR1bZfCv-474">
          <mxGeometry x="238" y="125" width="10" height="40" as="geometry" />
        </mxCell>
        <mxCell id="nZ9N4Pl0c4IbJR1bZfCv-364" value="" style="endArrow=none;html=1;rounded=0;entryX=0.5;entryY=1;entryDx=0;entryDy=0;" parent="O01UDQ-qmWV1Ew-ezUbk-1" target="nZ9N4Pl0c4IbJR1bZfCv-363" edge="1">
          <mxGeometry width="50" height="50" relative="1" as="geometry">
            <mxPoint x="-15" y="20" as="sourcePoint" />
            <mxPoint x="21" y="90" as="targetPoint" />
          </mxGeometry>
        </mxCell>
        <mxCell id="nZ9N4Pl0c4IbJR1bZfCv-363" value="" style="ellipse;whiteSpace=wrap;html=1;aspect=fixed;fillColor=#000000;strokeColor=default;container=0;rotation=90;" parent="O01UDQ-qmWV1Ew-ezUbk-1" vertex="1">
          <mxGeometry x="15" y="15" width="10" height="10" as="geometry" />
        </mxCell>
        <mxCell id="nZ9N4Pl0c4IbJR1bZfCv-618" value="" style="endArrow=none;html=1;rounded=0;entryX=0.5;entryY=0;entryDx=0;entryDy=0;exitX=0.5;exitY=1;exitDx=0;exitDy=0;" parent="1" source="nZ9N4Pl0c4IbJR1bZfCv-623" target="nZ9N4Pl0c4IbJR1bZfCv-635" edge="1">
          <mxGeometry width="50" height="50" relative="1" as="geometry">
            <mxPoint x="1776.05" y="940" as="sourcePoint" />
            <mxPoint x="1826.05" y="890" as="targetPoint" />
          </mxGeometry>
        </mxCell>
        <mxCell id="nZ9N4Pl0c4IbJR1bZfCv-619" value="" style="endArrow=none;html=1;rounded=0;exitX=0.5;exitY=0;exitDx=0;exitDy=0;entryX=0.5;entryY=1;entryDx=0;entryDy=0;" parent="1" source="nZ9N4Pl0c4IbJR1bZfCv-623" target="nZ9N4Pl0c4IbJR1bZfCv-10" edge="1">
          <mxGeometry width="50" height="50" relative="1" as="geometry">
            <mxPoint x="1776.05" y="940" as="sourcePoint" />
            <mxPoint x="1500" y="650" as="targetPoint" />
          </mxGeometry>
        </mxCell>
        <mxCell id="nZ9N4Pl0c4IbJR1bZfCv-620" value="" style="strokeWidth=2;html=1;shape=mxgraph.flowchart.annotation_2;align=left;labelPosition=right;pointerEvents=1;rotation=90;container=0;" parent="1" vertex="1">
          <mxGeometry x="1465" y="802" width="50" height="100" as="geometry" />
        </mxCell>
        <mxCell id="nZ9N4Pl0c4IbJR1bZfCv-621" value="GENERICO" style="rounded=0;whiteSpace=wrap;html=1;fillColor=#CCE5FF;strokeColor=#66B2FF;" parent="1" vertex="1">
          <mxGeometry x="1500" y="877" width="100" height="40" as="geometry" />
        </mxCell>
        <mxCell id="nZ9N4Pl0c4IbJR1bZfCv-622" value="SPECIFICO" style="rounded=0;whiteSpace=wrap;html=1;fillColor=#CCE5FF;strokeColor=#66B2FF;" parent="1" vertex="1">
          <mxGeometry x="1380" y="877" width="100" height="40" as="geometry" />
        </mxCell>
        <mxCell id="nZ9N4Pl0c4IbJR1bZfCv-623" value="FORMATO DA" style="rhombus;whiteSpace=wrap;html=1;fillColor=#FFFFCC;strokeColor=#FFCC99;" parent="1" vertex="1">
          <mxGeometry x="1440" y="690" width="100" height="40" as="geometry" />
        </mxCell>
        <mxCell id="nZ9N4Pl0c4IbJR1bZfCv-624" value="(1,N)" style="text;html=1;align=center;verticalAlign=middle;whiteSpace=wrap;rounded=0;fontColor=#FF3333;" parent="1" vertex="1">
          <mxGeometry x="1477.9999999999998" y="761" width="60" height="30" as="geometry" />
        </mxCell>
        <mxCell id="nZ9N4Pl0c4IbJR1bZfCv-626" value="Dimensioni" style="text;html=1;align=center;verticalAlign=middle;resizable=0;points=[];autosize=1;strokeColor=none;fillColor=none;container=0;" parent="1" vertex="1">
          <mxGeometry x="1566" y="777" width="80" height="30" as="geometry" />
        </mxCell>
        <mxCell id="nZ9N4Pl0c4IbJR1bZfCv-627" value="Tipo" style="text;html=1;align=center;verticalAlign=middle;resizable=0;points=[];autosize=1;strokeColor=none;fillColor=none;container=0;" parent="1" vertex="1">
          <mxGeometry x="1426" y="730" width="50" height="30" as="geometry" />
        </mxCell>
        <mxCell id="nZ9N4Pl0c4IbJR1bZfCv-628" value="" style="group;rotation=-180;" parent="1" vertex="1" connectable="0">
          <mxGeometry x="1460" y="757" width="10" height="30" as="geometry" />
        </mxCell>
        <mxCell id="nZ9N4Pl0c4IbJR1bZfCv-629" value="" style="ellipse;whiteSpace=wrap;html=1;aspect=fixed;fillColor=none;strokeColor=default;container=0;rotation=-180;" parent="nZ9N4Pl0c4IbJR1bZfCv-628" vertex="1">
          <mxGeometry width="10" height="10" as="geometry" />
        </mxCell>
        <mxCell id="nZ9N4Pl0c4IbJR1bZfCv-630" value="" style="endArrow=none;html=1;rounded=0;fontFamily=Helvetica;fontSize=12;fontColor=default;" parent="nZ9N4Pl0c4IbJR1bZfCv-628" edge="1">
          <mxGeometry width="50" height="50" relative="1" as="geometry">
            <mxPoint x="5" y="10" as="sourcePoint" />
            <mxPoint x="5" y="30" as="targetPoint" />
          </mxGeometry>
        </mxCell>
        <mxCell id="nZ9N4Pl0c4IbJR1bZfCv-631" value="Peso" style="text;html=1;align=center;verticalAlign=middle;resizable=0;points=[];autosize=1;strokeColor=none;fillColor=none;container=0;" parent="1" vertex="1">
          <mxGeometry x="1511" y="730" width="50" height="30" as="geometry" />
        </mxCell>
        <mxCell id="nZ9N4Pl0c4IbJR1bZfCv-632" value="" style="group;rotation=-180;" parent="1" vertex="1" connectable="0">
          <mxGeometry x="1520.95" y="757" width="10" height="30" as="geometry" />
        </mxCell>
        <mxCell id="nZ9N4Pl0c4IbJR1bZfCv-633" value="" style="ellipse;whiteSpace=wrap;html=1;aspect=fixed;fillColor=none;strokeColor=default;container=0;rotation=-180;" parent="nZ9N4Pl0c4IbJR1bZfCv-632" vertex="1">
          <mxGeometry width="10" height="10" as="geometry" />
        </mxCell>
        <mxCell id="nZ9N4Pl0c4IbJR1bZfCv-634" value="" style="endArrow=none;html=1;rounded=0;fontFamily=Helvetica;fontSize=12;fontColor=default;" parent="nZ9N4Pl0c4IbJR1bZfCv-632" edge="1">
          <mxGeometry width="50" height="50" relative="1" as="geometry">
            <mxPoint x="5" y="10" as="sourcePoint" />
            <mxPoint x="5" y="30" as="targetPoint" />
          </mxGeometry>
        </mxCell>
        <mxCell id="nZ9N4Pl0c4IbJR1bZfCv-635" value="COMPONENTE" style="rounded=0;whiteSpace=wrap;html=1;fillColor=#CCE5FF;strokeColor=#66B2FF;" parent="1" vertex="1">
          <mxGeometry x="1440" y="787" width="100" height="40" as="geometry" />
        </mxCell>
        <mxCell id="nZ9N4Pl0c4IbJR1bZfCv-642" value="Nome" style="text;html=1;align=center;verticalAlign=middle;resizable=0;points=[];autosize=1;strokeColor=none;fillColor=none;container=0;" parent="1" vertex="1">
          <mxGeometry x="1566" y="800" width="60" height="30" as="geometry" />
        </mxCell>
        <mxCell id="nZ9N4Pl0c4IbJR1bZfCv-643" value="(t,e)" style="text;html=1;align=center;verticalAlign=middle;whiteSpace=wrap;rounded=0;labelBackgroundColor=none;fontColor=#FF3333;" parent="1" vertex="1">
          <mxGeometry x="1478.9999999999998" y="825.1600000000001" width="60" height="30" as="geometry" />
        </mxCell>
        <mxCell id="nZ9N4Pl0c4IbJR1bZfCv-644" value="(1,1)" style="text;html=1;align=center;verticalAlign=middle;whiteSpace=wrap;rounded=0;fontColor=#FF3333;" parent="1" vertex="1">
          <mxGeometry x="1476.0499999999997" y="615" width="60" height="30" as="geometry" />
        </mxCell>
        <mxCell id="nZ9N4Pl0c4IbJR1bZfCv-655" value="" style="group" parent="1" vertex="1" connectable="0">
          <mxGeometry x="1320" y="100" width="170" height="140" as="geometry" />
        </mxCell>
        <mxCell id="nZ9N4Pl0c4IbJR1bZfCv-645" value="Civico" style="text;html=1;align=center;verticalAlign=middle;resizable=0;points=[];autosize=1;strokeColor=none;fillColor=none;container=0;" parent="nZ9N4Pl0c4IbJR1bZfCv-655" vertex="1">
          <mxGeometry x="102.5" y="110" width="60" height="30" as="geometry" />
        </mxCell>
        <mxCell id="nZ9N4Pl0c4IbJR1bZfCv-646" value="INDIRIZZO" style="ellipse;whiteSpace=wrap;html=1;fillColor=default;container=0;" parent="nZ9N4Pl0c4IbJR1bZfCv-655" vertex="1">
          <mxGeometry y="60" width="100" height="40" as="geometry" />
        </mxCell>
        <mxCell id="nZ9N4Pl0c4IbJR1bZfCv-647" value="" style="ellipse;whiteSpace=wrap;html=1;aspect=fixed;fillColor=none;strokeColor=default;direction=south;container=0;" parent="nZ9N4Pl0c4IbJR1bZfCv-655" vertex="1">
          <mxGeometry x="120" y="75" width="10" height="10" as="geometry" />
        </mxCell>
        <mxCell id="nZ9N4Pl0c4IbJR1bZfCv-648" value="" style="endArrow=none;html=1;rounded=0;entryX=1;entryY=0.5;entryDx=0;entryDy=0;exitX=0.5;exitY=1;exitDx=0;exitDy=0;" parent="nZ9N4Pl0c4IbJR1bZfCv-655" source="nZ9N4Pl0c4IbJR1bZfCv-647" target="nZ9N4Pl0c4IbJR1bZfCv-646" edge="1">
          <mxGeometry width="50" height="50" relative="1" as="geometry">
            <mxPoint x="75" y="51" as="sourcePoint" />
            <mxPoint x="5" y="71" as="targetPoint" />
          </mxGeometry>
        </mxCell>
        <mxCell id="nZ9N4Pl0c4IbJR1bZfCv-649" value="" style="endArrow=none;html=1;rounded=0;entryX=1;entryY=0;entryDx=0;entryDy=0;exitX=1;exitY=1;exitDx=0;exitDy=0;" parent="nZ9N4Pl0c4IbJR1bZfCv-655" source="nZ9N4Pl0c4IbJR1bZfCv-650" target="nZ9N4Pl0c4IbJR1bZfCv-646" edge="1">
          <mxGeometry width="50" height="50" relative="1" as="geometry">
            <mxPoint x="45" y="40" as="sourcePoint" />
            <mxPoint x="45" y="60" as="targetPoint" />
          </mxGeometry>
        </mxCell>
        <mxCell id="nZ9N4Pl0c4IbJR1bZfCv-650" value="" style="ellipse;whiteSpace=wrap;html=1;aspect=fixed;fillColor=none;strokeColor=default;direction=south;container=0;" parent="nZ9N4Pl0c4IbJR1bZfCv-655" vertex="1">
          <mxGeometry x="100" y="30" width="10" height="10" as="geometry" />
        </mxCell>
        <mxCell id="nZ9N4Pl0c4IbJR1bZfCv-651" value="" style="ellipse;whiteSpace=wrap;html=1;aspect=fixed;fillColor=none;strokeColor=default;direction=south;container=0;" parent="nZ9N4Pl0c4IbJR1bZfCv-655" vertex="1">
          <mxGeometry x="101.5" y="119" width="10" height="10" as="geometry" />
        </mxCell>
        <mxCell id="nZ9N4Pl0c4IbJR1bZfCv-652" value="" style="endArrow=none;html=1;rounded=0;entryX=1;entryY=1;entryDx=0;entryDy=0;exitX=0;exitY=1;exitDx=0;exitDy=0;" parent="nZ9N4Pl0c4IbJR1bZfCv-655" source="nZ9N4Pl0c4IbJR1bZfCv-651" target="nZ9N4Pl0c4IbJR1bZfCv-646" edge="1">
          <mxGeometry width="50" height="50" relative="1" as="geometry">
            <mxPoint x="85" y="61" as="sourcePoint" />
            <mxPoint x="15" y="81" as="targetPoint" />
            <Array as="points" />
          </mxGeometry>
        </mxCell>
        <mxCell id="nZ9N4Pl0c4IbJR1bZfCv-653" value="Via" style="text;html=1;align=center;verticalAlign=middle;resizable=0;points=[];autosize=1;strokeColor=none;fillColor=none;container=0;" parent="nZ9N4Pl0c4IbJR1bZfCv-655" vertex="1">
          <mxGeometry x="130" y="65" width="40" height="30" as="geometry" />
        </mxCell>
        <mxCell id="nZ9N4Pl0c4IbJR1bZfCv-654" value="CAP" style="text;html=1;align=center;verticalAlign=middle;resizable=0;points=[];autosize=1;strokeColor=none;fillColor=none;container=0;" parent="nZ9N4Pl0c4IbJR1bZfCv-655" vertex="1">
          <mxGeometry x="80" width="50" height="30" as="geometry" />
        </mxCell>
        <mxCell id="nZ9N4Pl0c4IbJR1bZfCv-656" value="" style="endArrow=none;html=1;rounded=0;fontFamily=Helvetica;fontSize=12;fontColor=default;entryX=0;entryY=0.5;entryDx=0;entryDy=0;exitX=1;exitY=0.5;exitDx=0;exitDy=0;" parent="1" source="-h9D7wXuSF3LVRJVjBPy-37" target="nZ9N4Pl0c4IbJR1bZfCv-646" edge="1">
          <mxGeometry width="50" height="50" relative="1" as="geometry">
            <mxPoint x="1245" y="230" as="sourcePoint" />
            <mxPoint x="1245" y="210" as="targetPoint" />
          </mxGeometry>
        </mxCell>
        <mxCell id="nZ9N4Pl0c4IbJR1bZfCv-657" value="" style="group;rotation=-180;" parent="1" vertex="1" connectable="0">
          <mxGeometry x="1290" y="160" width="10" height="30" as="geometry" />
        </mxCell>
        <mxCell id="O01UDQ-qmWV1Ew-ezUbk-4" value="" style="endArrow=none;html=1;rounded=0;fontFamily=Helvetica;fontSize=12;fontColor=default;exitX=1;exitY=0.25;exitDx=0;exitDy=0;" edge="1" parent="nZ9N4Pl0c4IbJR1bZfCv-657" source="-h9D7wXuSF3LVRJVjBPy-37">
          <mxGeometry width="50" height="50" relative="1" as="geometry">
            <mxPoint x="15" y="20" as="sourcePoint" />
            <mxPoint x="-10" y="10" as="targetPoint" />
          </mxGeometry>
        </mxCell>
        <mxCell id="O01UDQ-qmWV1Ew-ezUbk-5" value="" style="ellipse;whiteSpace=wrap;html=1;aspect=fixed;fillColor=none;strokeColor=default;rotation=-180;" vertex="1" parent="1">
          <mxGeometry x="1280" y="165" width="10" height="10" as="geometry" />
        </mxCell>
        <mxCell id="nZ9N4Pl0c4IbJR1bZfCv-314" value="" style="endArrow=none;html=1;rounded=0;fontFamily=Helvetica;fontSize=12;fontColor=default;exitX=0.5;exitY=0;exitDx=0;exitDy=0;" parent="1" source="nZ9N4Pl0c4IbJR1bZfCv-315" edge="1">
          <mxGeometry width="50" height="50" relative="1" as="geometry">
            <mxPoint x="1265" y="139" as="sourcePoint" />
            <mxPoint x="1270" y="190" as="targetPoint" />
          </mxGeometry>
        </mxCell>
        <mxCell id="nZ9N4Pl0c4IbJR1bZfCv-315" value="" style="ellipse;whiteSpace=wrap;html=1;aspect=fixed;fillColor=#000000;strokeColor=default;rotation=-180;" parent="1" vertex="1">
          <mxGeometry x="1265" y="149" width="10" height="10" as="geometry" />
        </mxCell>
        <mxCell id="O01UDQ-qmWV1Ew-ezUbk-6" value="Paese" style="text;html=1;align=center;verticalAlign=middle;whiteSpace=wrap;rounded=0;" vertex="1" parent="1">
          <mxGeometry x="1270" y="139" width="60" height="30" as="geometry" />
        </mxCell>
        <mxCell id="nZ9N4Pl0c4IbJR1bZfCv-637" value="" style="ellipse;whiteSpace=wrap;html=1;aspect=fixed;fillColor=none;strokeColor=default;container=0;rotation=90;" parent="1" vertex="1">
          <mxGeometry x="1560" y="790" width="10" height="10" as="geometry" />
        </mxCell>
        <mxCell id="nZ9N4Pl0c4IbJR1bZfCv-638" value="" style="endArrow=none;html=1;rounded=0;fontFamily=Helvetica;fontSize=12;fontColor=default;" parent="1" edge="1">
          <mxGeometry width="50" height="50" relative="1" as="geometry">
            <mxPoint x="1560" y="795" as="sourcePoint" />
            <mxPoint x="1540" y="795" as="targetPoint" />
          </mxGeometry>
        </mxCell>
        <mxCell id="O01UDQ-qmWV1Ew-ezUbk-8" value="" style="ellipse;whiteSpace=wrap;html=1;aspect=fixed;fillColor=#000000;strokeColor=default;container=0;rotation=90;" vertex="1" parent="1">
          <mxGeometry x="1560" y="810" width="10" height="10" as="geometry" />
        </mxCell>
        <mxCell id="O01UDQ-qmWV1Ew-ezUbk-9" value="" style="endArrow=none;html=1;rounded=0;fontFamily=Helvetica;fontSize=12;fontColor=default;" edge="1" parent="1">
          <mxGeometry width="50" height="50" relative="1" as="geometry">
            <mxPoint x="1560" y="815" as="sourcePoint" />
            <mxPoint x="1540" y="815" as="targetPoint" />
          </mxGeometry>
        </mxCell>
        <mxCell id="O01UDQ-qmWV1Ew-ezUbk-10" value="" style="endArrow=none;html=1;rounded=0;entryX=0;entryY=0.5;entryDx=0;entryDy=0;exitX=1;exitY=0.5;exitDx=0;exitDy=0;" edge="1" parent="1" source="nZ9N4Pl0c4IbJR1bZfCv-1" target="nZ9N4Pl0c4IbJR1bZfCv-635">
          <mxGeometry width="50" height="50" relative="1" as="geometry">
            <mxPoint x="1500" y="740" as="sourcePoint" />
            <mxPoint x="1500" y="797" as="targetPoint" />
          </mxGeometry>
        </mxCell>
        <mxCell id="nZ9N4Pl0c4IbJR1bZfCv-1" value="COMPOSIZIONE" style="rhombus;whiteSpace=wrap;html=1;fillColor=#FFFFCC;strokeColor=#FFCC99;" parent="1" vertex="1">
          <mxGeometry x="1300" y="787" width="100" height="40" as="geometry" />
        </mxCell>
        <mxCell id="O01UDQ-qmWV1Ew-ezUbk-11" value="(1,N)" style="text;html=1;align=center;verticalAlign=middle;whiteSpace=wrap;rounded=0;fontColor=#FF3333;" vertex="1" parent="1">
          <mxGeometry x="1395" y="783" width="60" height="30" as="geometry" />
        </mxCell>
      </root>
    </mxGraphModel>
  </diagram>
</mxfile>
